# xmcd
#
# Track frame offsets:
# 150
# 17115
# 36182
# 51482
# 68632
# 104472
# 121812
# 148365
# 168755
# 184037
# 211247
# 218707
# 228670
# 247675
# 256390
# 267337
#
# Disc length: 3910 seconds
#
#
# Revision: 3
# Processed by: cddbd v1.5.2PL0 Copyright (c) Steve Scherf et al.
# Submitted via: FreeRIP 2.96 
#
DISCID=e70f4410
DTITLE=Alvin Slaughter - God Can
DYEAR=1996
DGENRE=Gospel
TTITLE0=Shouts Of Joy
TTITLE1=God Can
TTITLE2=More Than Enough
TTITLE3=Doin A Good Work
TTITLE4=Holy, Holy, Holy
TTITLE5=Our Help Is In The Name Of The Lord
TTITLE6=God Gives His Children A Song
TTITLE7=That's When
TTITLE8=Jesus, Lord To Me
TTITLE9=Alleluia
TTITLE10=Jesus Is Everything I Need
TTITLE11=He's All I Need
TTITLE12=The Wonders Of His Hands
TTITLE13=I Love You Lord
TTITLE14=You Are Worthy To Be Praised
TTITLE15=When We All Get To Heaven
EXTD=
EXTT0=
EXTT1=
EXTT2=
EXTT3=
EXTT4=
EXTT5=
EXTT6=
EXTT7=
EXTT8=
EXTT9=
EXTT10=
EXTT11=
EXTT12=
EXTT13=
EXTT14=
EXTT15=
PLAYORDER=
